<svg width="140" height="32" viewBox="0 0 140 32" fill="none" xmlns="http://www.w3.org/2000/svg">
<path d="M65.2004 22.0523C64.2186 23.2396 63.0602 24.1453 61.7271 24.7655C60.3939 25.3877 58.9032 25.6979 57.2529 25.6979C55.7697 25.6979 54.3948 25.4296 53.1263 24.8911C51.8577 24.3526 50.76 23.6201 49.8333 22.6916C48.9065 21.7631 48.1754 20.6634 47.638 19.3923C47.1005 18.1213 46.8328 16.7514 46.8328 15.2863C46.8328 13.8212 47.1005 12.4513 47.638 11.1803C48.1754 9.90926 48.9065 8.80956 49.8333 7.88098C50.76 6.95249 51.8577 6.21996 53.1263 5.6815C54.3948 5.14303 55.7716 4.87476 57.2529 4.87476C58.8462 4.87476 60.2496 5.15255 61.4612 5.71003C62.6747 6.26753 63.7534 7.07427 64.6991 8.13214L62.0594 10.6932C61.4669 10.0063 60.7852 9.45834 60.016 9.05119C59.2469 8.64212 58.3354 8.43851 57.2795 8.43851C56.3528 8.43851 55.483 8.60026 54.6683 8.92561C53.8536 9.25096 53.1433 9.70949 52.5413 10.3031C51.9393 10.8968 51.4626 11.616 51.1113 12.4608C50.76 13.3056 50.5834 14.2475 50.5834 15.2863C50.5834 16.3252 50.76 17.267 51.1113 18.1118C51.4626 18.9566 51.9393 19.6759 52.5413 20.2695C53.1433 20.8631 53.8517 21.3236 54.6683 21.647C55.483 21.9724 56.3546 22.1341 57.2795 22.1341C58.3904 22.1341 59.3779 21.9058 60.2382 21.4511C61.0985 20.9963 61.8638 20.3513 62.5304 19.516L65.2004 22.0523ZM76.2035 23.4717H75.9817C75.5558 24.1586 74.9804 24.7009 74.259 25.1004C73.5354 25.5 72.7112 25.6998 71.7864 25.6998C70.0639 25.6998 68.7802 25.1708 67.9389 24.1129C67.0957 23.055 66.6741 21.6452 66.6741 19.8813V11.6122H70.3146V19.4361C70.3146 20.4198 70.533 21.1485 70.9679 21.6204C71.4028 22.0942 72.037 22.3301 72.8707 22.3301C73.372 22.3301 73.811 22.2236 74.1905 22.0104C74.5707 21.7973 74.8949 21.5101 75.1631 21.1485C75.4306 20.787 75.6354 20.3589 75.7747 19.868C75.9132 19.3752 75.9832 18.852 75.9832 18.2944V11.6122H79.6239V25.2526H76.2057V23.4717H76.2035ZM119.468 21.7745C118.876 22.9257 118.045 23.8675 116.98 24.6C115.915 25.3325 114.586 25.6998 112.994 25.6998C111.938 25.6998 110.97 25.519 110.09 25.1575C109.211 24.796 108.451 24.2899 107.811 23.641C107.174 22.9923 106.672 22.2254 106.311 21.3445C105.951 20.4636 105.77 19.4931 105.77 18.4353C105.77 17.3774 105.951 16.4032 106.311 15.5128C106.672 14.6223 107.174 13.8555 107.811 13.2162C108.451 12.575 109.211 12.0746 110.09 11.713C110.97 11.3515 111.938 11.1708 112.994 11.1708C114.568 11.1708 115.892 11.5323 116.967 12.2572C118.041 12.9822 118.828 13.9183 119.329 15.0694L115.994 16.4602C115.679 15.8286 115.277 15.351 114.785 15.0275C114.293 14.7022 113.678 14.5405 112.937 14.5405C112.455 14.5405 112.003 14.6337 111.576 14.8182C111.15 15.0028 110.774 15.2635 110.449 15.5965C110.125 15.9314 109.87 16.3385 109.684 16.8218C109.5 17.3051 109.406 17.8435 109.406 18.4371C109.406 19.0308 109.5 19.5693 109.684 20.0526C109.87 20.5359 110.125 20.943 110.449 21.2779C110.774 21.6127 111.148 21.8716 111.576 22.058C112.003 22.2445 112.455 22.3358 112.937 22.3358C113.697 22.3358 114.34 22.1646 114.869 21.8202C115.396 21.4777 115.818 20.9811 116.133 20.3303L119.468 21.7745ZM133.887 21.9686C133.259 23.0817 132.41 23.9835 131.344 24.6685C130.279 25.3554 128.978 25.6979 127.442 25.6979C126.405 25.6979 125.446 25.5171 124.567 25.1556C123.688 24.7941 122.922 24.288 122.275 23.6391C121.625 22.9903 121.122 22.2235 120.761 21.3426C120.4 20.4617 120.22 19.4913 120.22 18.4334C120.22 17.4497 120.396 16.5174 120.748 15.6364C121.099 14.7555 121.591 13.9849 122.219 13.3265C122.848 12.6682 123.594 12.1431 124.456 11.753C125.317 11.363 126.267 11.1689 127.305 11.1689C128.397 11.1689 129.37 11.3496 130.222 11.7111C131.075 12.0726 131.789 12.575 132.363 13.2143C132.936 13.8555 133.373 14.6108 133.669 15.4823C133.965 16.3537 134.113 17.3013 134.113 18.3211V18.656C134.094 18.7663 134.085 18.8691 134.085 18.9623C134.066 19.0556 134.058 19.1564 134.058 19.2686H123.805C123.879 19.8262 124.033 20.3037 124.265 20.7033C124.497 21.1028 124.784 21.4359 125.125 21.706C125.469 21.9743 125.843 22.1703 126.251 22.2902C126.66 22.41 127.075 22.4709 127.502 22.4709C128.337 22.4709 129.026 22.2806 129.573 21.9001C130.12 21.5195 130.551 21.042 130.864 20.4673L133.887 21.9686ZM100.766 23.8065H100.544C100.118 24.326 99.6034 24.7712 99.0014 25.1423C98.3994 25.5133 97.6265 25.6998 96.6811 25.6998C95.9767 25.6998 95.3135 25.5837 94.6946 25.3516C94.0734 25.1195 93.5326 24.7998 93.0691 24.3907C92.6056 23.9817 92.2446 23.4907 91.9845 22.9161C91.7243 22.3396 91.5954 21.7098 91.5954 21.023C91.5954 20.317 91.7339 19.6815 92.011 19.1164C92.2888 18.5494 92.6778 18.0623 93.1789 17.6552C93.6785 17.2461 94.2672 16.936 94.9436 16.7228C95.6193 16.5097 96.3561 16.4032 97.1519 16.4032C98.0406 16.4032 98.7737 16.4717 99.3477 16.6125C99.921 16.7514 100.394 16.896 100.764 17.0444V16.6258C100.764 15.9028 100.477 15.3034 99.9018 14.8297C99.3286 14.3559 98.6146 14.12 97.7635 14.12C96.5042 14.12 95.4388 14.6489 94.5671 15.7068L91.9277 13.8973C93.3727 12.0783 95.3445 11.1689 97.8453 11.1689C99.9571 11.1689 101.569 11.6655 102.68 12.6587C103.791 13.6519 104.347 15.1227 104.347 17.0711V25.2564H100.764V23.8065H100.766ZM135.889 5.31998H139.529V25.2526H135.889V5.31998ZM82.1778 11.6122H85.596V13.5054H85.8186C85.9858 13.1705 86.2076 12.8642 86.4854 12.5864C86.7625 12.3086 87.0734 12.065 87.4153 11.8596C87.7594 11.6521 88.1293 11.4847 88.5265 11.3572C88.9251 11.2298 89.3186 11.167 89.7076 11.167C90.1903 11.167 90.6021 11.2183 90.944 11.323C91.2874 11.4257 91.5785 11.5589 91.8194 11.7245L90.8475 14.9819C90.625 14.8715 90.3804 14.7821 90.1107 14.7174C89.8425 14.6527 89.5124 14.6204 89.1248 14.6204C88.6252 14.6204 88.1713 14.7174 87.7631 14.9134C87.3549 15.1094 87.0093 15.3834 86.7205 15.7392C86.4338 16.093 86.2113 16.5079 86.0536 16.9854C85.8967 17.4611 85.8186 17.9786 85.8186 18.538V25.2546H82.1778V11.6122ZM100.766 19.7139C100.34 19.5103 99.8996 19.3467 99.4465 19.2268C98.9926 19.1069 98.4967 19.0461 97.9588 19.0461C97.0893 19.0461 96.4173 19.2363 95.9443 19.6169C95.4712 19.9974 95.2361 20.4673 95.2361 21.023C95.2361 21.5804 95.4616 22.0257 95.9177 22.3586C96.3716 22.6935 96.8955 22.8591 97.4879 22.8591C97.9706 22.8591 98.4149 22.7715 98.8216 22.5946C99.2298 22.4176 99.5754 22.1855 99.8642 21.8982C100.151 21.6109 100.373 21.276 100.53 20.8955C100.688 20.5168 100.766 20.121 100.766 19.7139ZM130.581 16.6791C130.562 16.4374 130.484 16.1691 130.346 15.8705C130.207 15.5736 130.004 15.2958 129.734 15.0352C129.466 14.7745 129.132 14.5614 128.733 14.3939C128.334 14.2265 127.858 14.1428 127.304 14.1428C126.525 14.1428 125.839 14.3654 125.247 14.8106C124.654 15.2559 124.236 15.8781 123.995 16.6753H130.581V16.6791Z" fill="#1A1AFF"/>
<path d="M33.3724 10.6875C33.3724 10.6875 33.3704 10.6895 33.3645 10.6915V10.6855L33.3724 10.6875Z" fill="#1A1AFF"/>
<path d="M31.5187 23.5098C28.2105 25.4791 19.3457 30.5536 19.3457 30.5536V23.7705C19.3457 20.7661 20.9068 17.9806 23.4667 16.4166C24.156 16.017 24.8093 15.6365 25.4284 15.2769C26.7881 16.0627 28.3529 16.9626 28.3529 16.9626C30.1229 17.9939 32.8442 20.6424 31.5187 23.5098Z" fill="url(#paint0_linear_2954_15289)"/>
<path d="M31.5662 7.08373C26.5014 4.14597 19.3457 0 19.3457 0V6.78121C19.3457 9.81222 20.9352 12.6206 23.5332 14.177C23.7668 14.3178 24.5549 14.7744 25.4284 15.2768C26.7881 16.0626 28.3529 16.9625 28.3529 16.9625C30.1229 17.9938 32.8442 20.6423 31.5187 23.5097C31.5852 23.4698 31.6516 23.4298 31.7124 23.3937C31.7599 23.3651 31.8073 23.3347 31.8548 23.3024C34.5629 21.55 36.2094 18.5342 36.2094 15.2844C36.2094 11.9223 34.447 8.80945 31.5662 7.08373ZM33.3646 10.6855L33.3722 10.6874C33.3722 10.6874 33.3702 10.6893 33.3646 10.6913V10.6855Z" fill="url(#paint1_linear_2954_15289)"/>
<path d="M4.69068 7.04378C7.9988 5.07449 16.8636 0 16.8636 0V6.78312C16.8636 9.78749 15.3026 12.573 12.7427 14.1371C12.0533 14.5366 11.4001 14.9171 10.781 15.2768C9.4212 14.4909 7.85636 13.591 7.85636 13.591C6.08648 12.5597 3.36513 9.91115 4.69068 7.04378Z" fill="url(#paint2_linear_2954_15289)"/>
<path d="M4.64319 23.4697C9.70797 26.4074 16.8636 30.5534 16.8636 30.5534V23.7722C16.8636 20.7412 15.2741 17.9328 12.6762 16.3764C12.4426 16.2356 11.6545 15.779 10.781 15.2767C9.42119 14.4908 7.85636 13.5909 7.85636 13.5909C6.08647 12.5596 3.36513 9.91107 4.69067 7.0437C4.6242 7.08366 4.55774 7.12361 4.49696 7.15976C4.44949 7.1883 4.40201 7.21875 4.35454 7.2511C1.64648 9.00346 0 12.0192 0 15.269C0 18.6311 1.76232 21.744 4.64319 23.4697ZM2.84479 19.8679L2.83719 19.866C2.83719 19.866 2.83909 19.8641 2.84479 19.8622V19.8679Z" fill="url(#paint3_linear_2954_15289)"/>
<path d="M31.5188 23.5097C31.5852 23.4697 31.6517 23.4297 31.7125 23.3936C31.6479 23.4354 31.5833 23.4754 31.5168 23.5134C31.5168 23.5115 31.5188 23.5115 31.5188 23.5097Z" fill="#1A1AFF"/>
<path d="M33.3724 10.6875C33.3724 10.6875 33.3704 10.6895 33.3645 10.6915V10.6855L33.3724 10.6875Z" fill="#1A1AFF"/>
<defs>
<linearGradient id="paint0_linear_2954_15289" x1="7.70574" y1="25.1051" x2="17.4265" y2="2.87096" gradientUnits="userSpaceOnUse">
<stop stop-color="#CF88FF"/>
<stop offset="1" stop-color="#B569FF"/>
</linearGradient>
<linearGradient id="paint1_linear_2954_15289" x1="-0.000387055" y1="15.2774" x2="36.2089" y2="15.2774" gradientUnits="userSpaceOnUse">
<stop stop-color="#6666FF"/>
<stop offset="1" stop-color="#1919FF"/>
</linearGradient>
<linearGradient id="paint2_linear_2954_15289" x1="28.5012" y1="5.45062" x2="18.7804" y2="27.6847" gradientUnits="userSpaceOnUse">
<stop stop-color="#CF88FF"/>
<stop offset="1" stop-color="#B569FF"/>
</linearGradient>
<linearGradient id="paint3_linear_2954_15289" x1="36.2079" y1="15.2774" x2="-0.00138559" y2="15.2774" gradientUnits="userSpaceOnUse">
<stop stop-color="#6666FF"/>
<stop offset="1" stop-color="#1919FF"/>
</linearGradient>
</defs>
</svg>
