<svg width="30" height="30" viewBox="0 0 30 30" fill="none" xmlns="http://www.w3.org/2000/svg">
<circle cx="15" cy="15" r="15" fill="#6695FF"/>
<path d="M14.252 11.5288L17.7233 15L14.252 18.4713L13.0949 17.3142L15.4091 15L13.0949 12.6859L14.252 11.5288Z" fill="#F7F9FD"/>
<path fill-rule="evenodd" clip-rule="evenodd" d="M15 6C10.0294 6 6 10.0294 6 15C6 19.9706 10.0294 24 15 24C19.9706 24 24 19.9706 24 15C24 10.0294 19.9706 6 15 6ZM22.3636 15C22.3636 10.9332 19.0668 7.63636 15 7.63636C10.9332 7.63636 7.63636 10.9332 7.63636 15C7.63636 19.0668 10.9332 22.3636 15 22.3636C19.0668 22.3636 22.3636 19.0668 22.3636 15Z" fill="#F7F9FD"/>
</svg>
